<svg width="33" height="30" viewBox="0 0 33 30" fill="none" xmlns="http://www.w3.org/2000/svg">
<g clip-path="url(#clip0_1_60)">
<path d="M30.2569 17.6554L32.9652 5.46791C33.1608 4.58795 32.5068 3.75 31.6244 3.75H9.12129L8.59616 1.12441C8.4653 0.469981 7.90224 0 7.24906 0H1.375C0.615599 0 0 0.62959 0 1.40625V2.34375C0 3.12041 0.615599 3.75 1.375 3.75H5.37871L9.40334 23.8731C8.44049 24.4395 7.79167 25.5013 7.79167 26.7188C7.79167 28.5309 9.22808 30 11 30C12.7719 30 14.2083 28.5309 14.2083 26.7188C14.2083 25.8004 13.839 24.9706 13.2445 24.375H25.2555C24.661 24.9706 24.2917 25.8004 24.2917 26.7188C24.2917 28.5309 25.7281 30 27.5 30C29.2719 30 30.7083 28.5309 30.7083 26.7188C30.7083 25.4196 29.97 24.297 28.8991 23.7653L29.2152 22.3429C29.4107 21.4629 28.7567 20.625 27.8744 20.625H12.4963L12.1213 18.75H28.9161C29.5581 18.75 30.1146 18.2957 30.2569 17.6554Z" fill="white"/>
</g>
<defs>
<clipPath id="clip0_1_60">
<rect width="33" height="30" fill="white"/>
</clipPath>
</defs>
</svg>
