<svg width="97" height="91" viewBox="0 0 97 91" fill="none" xmlns="http://www.w3.org/2000/svg">
<path fill-rule="evenodd" clip-rule="evenodd" d="M57.5394 45.8001L58.4216 44.0077L60.3197 39.005L62.5119 35.4737L64.6506 30.1232L65.4526 28.3041C65.9473 27.937 66.363 28.3614 66.7893 28.6786C68.3029 28.6878 69.2837 29.5503 70.4786 30.0697L73.6332 30.257C74.4186 29.959 75.0304 29.7276 75.7452 29.6417C76.1957 29.6704 77.2308 29.7678 77.0551 30.3372L72.2965 39.647L67.1636 40.3426C66.2874 40.5176 65.0077 41.2316 64.3298 43.2318L63.902 47.7797L60.7474 46.3351C59.6524 46.298 58.5024 46.5634 57.5394 45.8001Z" fill="white" stroke="#0000FF" stroke-width="0.151181"/>
<path fill-rule="evenodd" clip-rule="evenodd" d="M2.25354 64.8477C3.10903 62.119 3.21596 56.3405 3.21596 56.3405C3.02344 52.7781 3.54455 48.6037 2.46741 45.8001C1.71707 44.6819 0.913763 43.7226 0.435633 41.7872C0.375423 40.3106 0.709831 38.9657 1.50499 37.7744C2.36508 36.438 3.39766 36.4823 4.39226 36.2227L19.3098 35.1526L20.0049 33.4405L22.304 25.7358C23.4484 25.0842 25.207 24.7118 27.9181 24.7727L48.0755 25.1473L49.4122 25.8428L56.7373 24.9333L78.3918 25.6288L85.3426 25.5753C86.4028 26.0762 86.7309 26.6992 86.9467 27.341L86.6259 32.6914L88.123 33.4405L87.8022 37.0253C89.8042 37.712 90.5903 39.3112 91.4914 40.8241C91.9066 42.3932 91.7847 43.6398 91.4914 44.7835C90.8837 46.2281 90.1845 47.1912 88.6042 48.6358L88.2834 60.1393C89.1588 63.5301 89.6488 66.5351 89.2458 68.6466L72.1361 77.7958L69.4627 77.6888L51.9252 73.355L41.1247 71.6428L35.671 71.4823L31.8213 69.9842L12.1451 66.2388L2.25354 64.8477Z" fill="white" stroke="#FF00FF" stroke-width="0.309921"/>
<path fill-rule="evenodd" clip-rule="evenodd" d="M78.2305 38.6844C77.9659 37.7654 78.6347 37.1967 79.1379 36.5657L82.9187 35.9604C83.1501 35.8023 83.3409 35.4813 83.3723 34.5227L84.0529 25.4427C85.4747 25.4119 86.4607 26.0953 87.0775 27.9775L86.4726 32.4041C87.0145 32.6674 87.7076 32.6933 88.2495 33.9552L87.4934 37.3981L78.2305 38.6844Z" stroke="#FF00FF" stroke-width="0.309921"/>
<path fill-rule="evenodd" clip-rule="evenodd" d="M28.9808 24.0016C27.1013 23.9865 25.2254 24.0725 23.4435 24.4447C23.4435 24.4447 23.4402 24.4447 23.4402 24.4447C23.4317 24.4466 23.4424 24.4444 23.4335 24.4464C22.5107 24.6491 21.8198 25.2119 21.4168 25.8961C21.0138 26.5803 20.8334 27.3512 20.6549 28.16C20.3479 29.5507 19.3443 33.5937 19.3332 33.6459C19.1667 34.4279 18.8304 34.4988 18.588 34.5705C18.2085 34.6827 14.8378 34.862 11.2646 35.1056C9.47798 35.2273 7.67635 35.3564 6.28372 35.465C5.37949 35.5356 4.4077 35.5369 3.61366 35.7493C2.16669 36.1364 1.25362 36.9739 0.743106 37.8962C0.230489 38.8222 0.114751 39.8184 0.0279732 40.7352C-0.131074 42.4156 0.386488 44.3522 1.62198 45.7195C1.99899 46.1368 2.12508 46.5659 2.15833 47.1541C2.33026 50.1956 2.306 53.2474 2.35717 56.2934C2.36276 56.6266 2.64133 56.6991 2.67296 56.8619C2.71926 57.1001 2.39228 59.0487 2.23519 60.1206C2.04566 61.4139 1.44467 63.0255 1.55849 64.0532C1.67231 65.081 2.0028 65.5997 2.44071 65.7587C3.77567 66.2435 5.22607 66.2729 6.69308 66.4559C9.03738 66.7485 11.3583 66.878 13.5988 67.2535C16.3854 67.7205 19.1585 68.5685 22.0534 69.1194C25.5816 69.791 29.1191 69.9135 32.4078 70.7764C33.2972 71.0098 34.2547 71.6502 35.5106 71.9184C37.6401 72.3732 39.7163 72.1049 41.5809 72.3314C44.8356 72.7268 48.0755 73.3852 51.3254 74.0553C57.4586 75.3197 63.4845 77.6558 69.7501 78.3992C70.5861 78.4983 71.4567 78.6095 72.2748 78.4109C78.7622 76.8361 90.0328 69.1462 90.0328 69.1462C90.7038 68.7135 89.3131 62.8372 89.1907 59.6675C89.0582 56.2379 89.3275 49.7902 89.3076 49.3712C89.293 49.0623 89.4163 48.904 90.1748 48.46C90.9333 48.0159 91.7696 46.5922 92.1782 45.0022C92.6031 43.3485 92.5643 41.4623 91.7805 39.8708C91.1817 38.655 90.2006 37.3242 88.3118 36.6672C88.4457 36.1677 88.4586 35.7147 88.5407 35.0755C88.6987 33.8461 88.6742 33.6063 88.3369 33.0373C88.138 32.7018 87.4126 32.5183 87.0804 32.3333L87.5582 28.1198C87.5996 27.7545 87.4752 26.8652 86.93 26.1201C86.3849 25.375 85.2482 24.7123 83.894 24.7123H83.884C77.5163 24.7123 71.1439 24.5392 64.699 24.428C59.926 24.3457 54.4963 23.6921 49.698 25.0283C49.052 24.6995 48.3482 24.4663 47.3855 24.3478C46.2205 24.2044 44.8346 24.1454 43.3537 24.1254C40.3918 24.0853 37.0527 24.203 34.5482 24.1622C32.7468 24.1328 30.8615 24.0168 28.9808 24.0016ZM28.9658 25.5282C30.7925 25.5424 32.6774 25.6486 34.5231 25.6787C37.0956 25.7206 40.4258 25.6025 43.3319 25.6419C44.785 25.6616 46.1316 25.721 47.2 25.8526C47.906 25.9395 48.4764 26.1273 48.8625 26.2605C47.9495 33.5872 46.0285 39.7242 45.4305 45.1861C39.1229 43.6814 30.992 42.8643 25.1094 42.9657C24.6079 42.9743 23.8294 43.0423 23.3633 43.0643C23.3923 42.7561 23.428 42.0575 23.4619 41.088C23.5047 39.8678 23.6035 38.5042 23.2915 37.5634C22.7881 36.0457 21.8112 35.2541 20.4878 34.9617C21.0543 32.8628 21.6587 30.6182 22.1336 28.4877C22.3057 27.7077 22.4844 27.0726 22.7234 26.6668C22.962 26.2618 23.1965 26.048 23.756 25.9295C25.3696 25.5876 27.139 25.514 28.9658 25.5282ZM57.1133 25.7221C59.6245 25.7275 62.2019 25.9011 64.6723 25.9445L82.4654 26.2572C83.6282 26.2776 83.4438 26.8842 83.3978 27.4192C83.1852 29.8869 82.9721 32.221 82.7595 34.8229C82.7448 35.0023 82.6769 35.4544 81.3543 35.5352C80.0317 35.6161 79.0449 36.0371 78.4302 36.5936C77.8156 37.1502 77.582 37.9376 77.548 38.0299L67.5395 39.4511C67.1183 39.5109 66.6149 39.6362 66.1828 39.9059C65.7507 40.1756 65.2705 40.5364 64.831 41.0345C64.3525 41.5769 63.9404 42.2441 63.6364 43.0794C63.2076 44.2572 63.2771 45.3677 63.2771 46.5522C57.9792 46.1045 52.167 45.1582 46.5584 45.3483C47.1634 40.1736 49.4432 33.7919 50.3646 26.4093C52.4601 25.8656 54.7562 25.7171 57.1133 25.7221ZM84.9483 26.3491C85.1122 26.3206 85.7403 26.5556 85.9208 26.8023C86.2004 27.1845 86.3757 27.9026 86.3318 28.4676C86.3318 28.4676 86.0469 31.7561 85.8606 33.3633C85.7312 34.4801 85.3193 36.6923 85.3193 36.6923L79.2105 37.7072C79.5404 37.2663 80.6715 37.0109 82.0861 36.9146C83.5008 36.8183 83.9037 35.5252 83.9425 35.0537C84.2432 31.3906 84.3312 29.856 84.5256 27.257C84.5407 27.055 84.5855 26.4123 84.9483 26.3491ZM86.9751 33.3198C87.2197 33.2991 87.616 33.547 87.6668 33.6943C87.73 33.8774 87.7613 34.2265 87.6401 34.7728C87.5189 35.3191 87.4706 35.9105 87.3227 36.4715L86.5123 36.5802L86.9751 33.3198ZM22.3809 37.8911C22.5555 38.4177 22.6108 39.8162 22.5697 40.991C22.5308 42.1003 22.4445 42.9885 22.4343 43.0911C21.5552 43.1617 17.9169 44.0978 17.248 44.2715C13.3468 45.2848 12.2644 45.391 8.35391 46.3766L8.28541 40.6633C8.2755 39.8374 7.96808 38.0924 7.08739 36.9264C8.37126 36.8287 9.83037 36.7236 11.3682 36.6187C14.9233 36.3764 18.1809 36.0406 18.2054 36.0369C18.6493 35.9687 19.2923 35.9351 20.1175 35.9265C20.9428 35.9179 21.9303 36.5326 22.3809 37.8911ZM5.9679 37.9429C6.52439 38.499 6.81986 39.7033 6.82506 41.4943L6.8685 56.4589C5.85818 56.2646 3.93268 56.0744 3.83754 55.877C3.77661 52.9883 3.80589 49.7147 3.66711 47.022C3.62897 46.2818 3.4012 45.4275 2.74646 44.7029C1.87024 43.7332 1.40323 42.1115 1.52004 40.8773C1.60335 39.9972 1.7394 39.2239 2.06809 38.6301C2.39678 38.0363 2.86879 37.2767 3.94448 37.1755C4.7392 37.1007 5.50614 37.4815 5.9679 37.9429ZM87.2023 37.9363C89.0119 38.3715 89.9021 39.5386 90.4371 40.6249C91.0129 41.7938 91.0583 43.2733 90.7112 44.6243C90.364 45.9754 89.5998 47.0514 88.915 47.4985C88.2301 47.9456 87.8238 48.6499 87.8072 49.6822L87.6518 59.3247L71.6198 66.0864C71.7228 62.0039 71.8711 57.4136 71.9205 53.3957C71.9671 53.0681 72.0566 52.8106 72.9264 51.6301C73.7962 50.4496 74.3535 49.5624 74.6106 48.8278C74.8161 48.2408 74.9048 47.5445 74.9598 47.0203C75.1229 45.4688 74.6194 43.6241 73.5145 42.0795C73.0257 41.396 72.3321 40.8307 71.5529 40.3624L87.2023 37.9363ZM68.791 40.889C70.4202 40.9788 71.5318 41.9143 72.2814 42.9623C73.1435 44.1675 73.5482 45.7296 73.4544 46.8565C73.4139 47.3423 73.2846 47.9258 73.1837 48.3161C73.0694 48.7585 72.5871 49.6429 71.2021 51.5197C70.7799 52.0918 70.6463 52.6815 70.5705 53.2152C70.4715 57.3409 70.539 62.0516 70.4218 66.2302L64.3749 65.5363C64.3749 65.5363 64.6088 52.1105 64.6088 45.6058C64.6088 44.0259 65.3134 42.8521 66.0006 42.0895C66.5707 41.4569 67.3296 40.9726 68.0608 40.9041C68.3151 40.8802 68.5583 40.8762 68.791 40.889ZM25.1378 43.9923C29.7117 43.9307 36.9877 44.8732 42.4347 45.8265C38.4989 46.5939 35.7107 47.8989 33.6342 49.3194C32.1009 49.2216 30.2501 48.9918 28.7185 48.8512L9.4617 47.2059L20.1904 44.6277C21.3458 44.35 23.221 44.0181 25.1378 43.9923ZM45.337 46.3448C47.2398 46.3414 48.4038 46.6609 48.9845 46.6542C54.1298 46.594 58.188 47.2564 63.3139 47.6808L63.5277 52.6885C63.5277 52.6885 52.0645 51.8259 46.4966 51.1218C42.8471 50.6603 34.899 49.3812 34.899 49.3812C36.93 48.1789 39.9634 46.8679 43.1815 46.4803C43.9861 46.3833 44.7027 46.346 45.337 46.3448ZM8.23695 48.0068C8.23695 48.0068 21.7919 49.7015 28.5648 50.1654C29.9596 50.2609 33.1914 50.3995 33.1914 50.3995C33.1037 52.0387 33.111 53.8363 33.1045 55.4958C24.9457 54.8882 15.8668 54.3279 7.89275 52.7186C7.37224 51.334 7.53676 49.4163 8.23695 48.0068ZM34.3209 50.7121C34.3209 50.7121 42.3088 52.0076 46.3228 52.5096C51.9533 53.2137 63.5277 54.2652 63.5277 54.2652L63.5812 59.3966C53.8216 59.0079 43.7988 57.7936 34.1555 55.6914C34.1605 53.8813 34.22 52.2472 34.3209 50.7121ZM7.63042 53.4342C15.658 55.0266 24.9838 56.378 33.0494 56.9789C32.9319 57.5412 32.2811 60.3785 32.3359 62.0652C32.3823 63.4933 32.1486 65.3492 32.2073 67.0327C32.2366 67.8745 32.1341 68.4191 32.1622 69.1512C30.4892 69.0322 25.5304 68.236 22.3358 67.628C19.5492 67.0976 16.7666 66.2459 13.8494 65.757C11.4984 65.363 9.1557 65.2342 6.8802 64.9511C5.89179 64.8281 3.96239 64.5638 3.69385 64.5163C3.49942 64.482 3.20624 64.4474 3.11573 63.9378C3.02522 63.4283 3.51474 61.8354 3.73395 60.3396C3.87158 59.4005 3.94818 57.4559 4.02969 56.8284L7.72232 57.3567L7.63042 53.4342ZM33.9216 57.0641C43.786 59.2364 53.5469 60.5206 63.5277 60.9148L63.491 66.2051L69.9121 67.0461C71.0264 67.192 69.0185 73.8664 69.5078 76.7789C69.659 77.6791 57.605 73.802 51.6311 72.5705C48.3792 71.9 45.0983 71.2301 41.763 70.8249C39.6457 70.5676 37.6213 70.8183 35.828 70.4353C35.0349 70.2659 33.9123 69.7356 32.8556 69.4003C32.911 68.5844 32.9733 67.6306 32.9491 66.9341C32.8901 65.2344 33.1736 63.3933 33.1279 61.9866C33.0807 60.5336 33.8246 57.5519 33.9216 57.0641ZM87.7403 60.0554C88.1152 62.707 88.7233 65.2185 88.4321 68.27L72.5053 76.58C72.5561 73.2323 71.9782 69.8919 71.6699 66.9006L87.7403 60.0554ZM71.1954 67.7952C71.4401 69.838 71.9056 74.7414 71.847 77.0013C71.2128 77.469 70.5243 77.3106 70.0976 77.0816C69.6968 75.5061 70.5085 70.2065 71.1954 67.7952Z" fill="black"/>
<path fill-rule="evenodd" clip-rule="evenodd" d="M13.3214 44.3019C13.8903 41.7195 14.7369 39.6001 14.9254 36.3833C14.8151 34.4657 14.8108 32.6119 14.0165 30.2837C14.0815 29.8298 14.2739 29.4184 14.765 29.1066L21.0208 29.5347L29.8965 28.4646C30.9499 28.4768 30.6057 28.8886 30.7519 29.1601C29.8526 31.8734 29.203 34.3924 29.5756 36.1157L30.4846 43.4459C30.5033 43.8697 30.6078 44.3149 29.5222 44.4625C26.7509 44.0793 24.0242 43.8304 21.3951 43.8739C18.6692 43.9651 16.3183 44.8067 13.8561 45.4255C13.1514 44.7349 13.363 44.5944 13.3214 44.3019Z" fill="white" stroke="#0000FF" stroke-width="0.309921"/>
<path fill-rule="evenodd" clip-rule="evenodd" d="M29.7912 28.2569C27.1554 28.368 24.5674 29.1345 21.9564 29.2517C20.2212 29.3297 18.3695 29.001 16.5729 28.9508C16.5723 28.9508 16.5718 28.9508 16.5712 28.9508C16.5706 28.9508 17.2239 29.0141 16.5695 28.9508C15.7891 28.8753 15.1275 28.8529 14.5978 29.006C14.333 29.0825 14.0092 29.1844 13.9161 29.4708C13.6672 30.237 13.8897 30.6062 13.9846 31.5357C14.1329 32.987 14.3413 34.4081 14.2871 35.7927C14.1839 38.4261 13.2345 43.484 13.0508 43.914C12.82 44.454 12.9756 44.9234 13.2227 45.3065C13.3942 45.5723 13.7682 45.6104 14.1417 45.6258C14.5152 45.6413 14.97 45.5869 15.2693 45.532C15.6403 45.4638 18.5667 44.5484 19.9747 44.4069C22.9232 44.1106 29.0087 44.6904 29.4364 44.7679C29.7584 44.8262 30.3352 44.7313 30.6616 44.3216C30.9881 43.9119 30.967 43.3867 30.8621 42.8385C30.8531 42.7914 30.7364 41.2213 30.6132 40.5361C30.2339 38.4276 30.2405 36.7399 30.411 34.6055C30.5439 32.9413 31.0735 29.4042 31.0735 29.4042C31.1327 29.2792 31.2112 28.9875 31.0827 28.6815C31.0184 28.5286 30.89 28.4018 30.7635 28.3354C30.4498 28.1852 30.1132 28.2464 29.7912 28.2569ZM29.9694 30.0178C29.9694 30.0178 29.1111 32.8129 28.9691 34.5905C28.7938 36.7853 29.0875 38.5344 29.477 40.7001C29.5863 41.3074 30.1329 42.9383 30.17 43.1291C30.2163 43.3677 30.1627 43.7368 30.1003 43.8151C30.0379 43.8934 29.7389 44.0248 29.4551 43.975C29.2826 43.9448 23.062 43.2368 19.8879 43.5558C18.267 43.7187 15.4253 44.6124 15.3799 44.6226C14.8332 44.7453 14.4337 44.7803 14.1769 44.7697C13.9201 44.7591 13.6542 44.6879 13.6503 44.5548C13.632 43.928 14.3175 42.3406 14.4678 41.7953C14.5325 41.5604 15.3781 38.9269 15.4885 36.107C15.5471 34.6113 15.0703 32.8335 14.623 31.4822C14.4658 31.0072 14.4639 30.4163 14.4292 29.9773C14.4104 29.7405 14.6754 29.6038 14.8235 29.561C15.1191 29.4756 15.8139 29.5318 16.5512 29.6028C17.1246 29.6581 20.0263 29.9542 21.923 29.8804C24.4685 29.7813 28.7151 29.1179 28.7151 29.1179C29.0211 29.1274 29.9136 28.6495 30.3554 28.7851C30.8374 28.9608 30.0207 29.8826 29.9694 30.0178Z" fill="black"/>
<path fill-rule="evenodd" clip-rule="evenodd" d="M65.4559 28.0914C65.0265 28.3728 64.9857 28.8027 64.3288 29.9075C63.6719 31.0122 63.0731 32.8047 62.1192 35.3129C59.0735 39.3667 58.7771 42.0845 57.5895 45.1243C57.5072 45.1946 57.3139 45.4414 57.2453 45.554C57.1422 45.723 57.135 45.9344 57.2703 46.1459C57.4057 46.3573 57.6752 46.3788 57.9136 46.4769C58.152 46.5751 58.4558 46.6609 59.5821 46.827C60.7085 46.9931 61.561 47.2475 61.9888 47.4635C62.4167 47.6794 62.9756 47.9742 63.3422 48.2777L63.2737 46.5739C63.0426 46.3826 63.2512 46.6463 62.6672 46.3516C62.0887 46.0596 61.2864 45.7791 59.4641 45.5339C59.0897 45.4552 57.4367 46.419 58.6111 44.3457C59.2241 42.6202 60.5451 38.9296 62.8908 35.6321C64.0335 32.2811 64.4462 31.3905 65.1029 30.1324C65.4121 29.1419 65.5768 28.7774 65.9205 28.5645C66.5317 28.5923 66.3002 28.8032 67.6327 29.0906C68.9651 29.378 69.3837 30.0463 70.5464 30.3475C71.7092 30.6486 72.4398 30.5048 73.5181 30.4525C74.5965 30.4002 74.6379 30.0195 75.0316 29.9958C75.3812 29.9748 76.5429 29.9293 76.7207 30.0536C77.1926 30.4991 75.7359 31.0795 75.4243 31.3618C74.9308 31.8092 74.2109 32.2492 73.7369 33.9341C73.2628 35.6189 71.6983 37.3727 71.0517 38.9846L74.1712 38.5281C74.7662 37.045 75.3878 36.2248 75.8471 33.7879C76.3063 32.9632 76.7669 32.3784 77.0467 31.6829C77.1888 31.3299 77.2644 30.9863 77.279 30.673C77.2864 30.5163 77.4315 30.0865 77.3592 29.9256C77.2869 29.7646 77.0637 29.6693 76.7465 29.5772C76.4294 29.4851 75.9946 29.3484 75.4344 29.3821C74.9294 29.4125 74.3097 29.6561 73.5914 30.0744C72.5058 29.6938 71.6495 29.7703 70.8478 29.7099C69.8339 29.2899 69.1121 28.7308 66.9714 28.4475C66.7076 28.2462 66.4679 28.0837 66.2205 28.0056C65.9732 27.9275 65.6707 27.9507 65.4559 28.0914Z" fill="black"/>
</svg>
