<svg width="28" height="30" viewBox="0 0 28 30" fill="none" xmlns="http://www.w3.org/2000/svg">
<path d="M27.4639 24.9087C27.4639 26.4691 26.9893 27.7012 26.04 28.605C25.0907 29.5088 23.8294 29.9606 22.2559 29.9606H5.208C3.63455 29.9606 2.37319 29.5088 1.42391 28.605C0.474637 27.7012 0 26.4691 0 24.9087C0 24.2195 0.0227566 23.5465 0.0682697 22.8899C0.113783 22.2332 0.204809 21.5245 0.341349 20.7637C0.477888 20.003 0.650188 19.2976 0.858248 18.6474C1.06631 17.9972 1.34589 17.3633 1.69699 16.7456C2.04809 16.1279 2.45121 15.6013 2.90634 15.1656C3.36147 14.73 3.91738 14.3822 4.57407 14.1221C5.23076 13.862 5.95572 13.732 6.74895 13.732C6.86598 13.732 7.13906 13.8718 7.56818 14.1513C7.99731 14.4309 8.4817 14.743 9.02135 15.0876C9.56101 15.4322 10.2632 15.7443 11.128 16.0239C11.9927 16.3035 12.8607 16.4432 13.732 16.4432C14.6032 16.4432 15.4712 16.3035 16.336 16.0239C17.2007 15.7443 17.9029 15.4322 18.4426 15.0876C18.9822 14.743 19.4666 14.4309 19.8957 14.1513C20.3249 13.8718 20.5979 13.732 20.715 13.732C21.5082 13.732 22.2332 13.862 22.8899 14.1221C23.5465 14.3822 24.1025 14.73 24.5576 15.1656C25.0127 15.6013 25.4158 16.1279 25.7669 16.7456C26.118 17.3633 26.3976 17.9972 26.6057 18.6474C26.8137 19.2976 26.986 20.003 27.1226 20.7637C27.2591 21.5245 27.3501 22.2332 27.3957 22.8899C27.4412 23.5465 27.4639 24.2195 27.4639 24.9087ZM21.2221 7.49016C21.2221 9.55776 20.4907 11.323 19.0277 12.7859C17.5648 14.2489 15.7996 14.9803 13.732 14.9803C11.6644 14.9803 9.89911 14.2489 8.43619 12.7859C6.97326 11.323 6.2418 9.55776 6.2418 7.49016C6.2418 5.42257 6.97326 3.65731 8.43619 2.19438C9.89911 0.731462 11.6644 0 13.732 0C15.7996 0 17.5648 0.731462 19.0277 2.19438C20.4907 3.65731 21.2221 5.42257 21.2221 7.49016Z" fill="white"/>
</svg>
